<?xml version="1.0" encoding="utf-8"?>
<!-- Generator: Adobe Illustrator 16.0.0, SVG Export Plug-In . SVG Version: 6.00 Build 0)  -->
<!DOCTYPE svg PUBLIC "-//W3C//DTD SVG 1.1//EN" "http://www.w3.org/Graphics/SVG/1.1/DTD/svg11.dtd">
<svg version="1.1" xmlns="http://www.w3.org/2000/svg" xmlns:xlink="http://www.w3.org/1999/xlink" width="283.46px" height="283.46px">

	<path fill="#FF0000" d="M257.67,93.876c-26.937,15.46-45.121,44.442-45.121,77.729c0,20.944,7.236,40.166,19.275,55.429
		c22.123-21.697,35.878-51.882,35.878-85.313C267.702,124.7,264.087,108.535,257.67,93.876z"/>
	<path fill="#FF0000" d="M200.636,38.053L91.008,54.422l-2.264,42.964l12.667-2.261l7.326,136.406
		c3.253,1.327,8.262,1.985,15.014,1.985c4.279,0,8.983-0.251,14.111-0.766c5.125-0.515,8.773-0.915,10.944-1.22l-5.158-81.588
		l47.402-8.863l-2.264-32.564l-46.673,7.416l-1.447-28.223l62.231-10.316L200.636,38.053z M136.233,84.002l1.813,37.81l46.311-8.863
		l2.261,24.425l-47.307,8.857l4.339,77.879c0,0.066,0,0.126,0,0.186c0,2.356-4.943,3.529-14.832,3.529
		c-3.074,0-6.001-0.108-8.776-0.317c-2.772-0.209-4.793-0.377-6.059-0.496l-8.866-137.764l-11.937,1.447l2.981-32.564
		l100.046-14.832l1.537,30.393L136.233,84.002z"/>
	<path fill="#00FF00" d="M257.67,93.876c-18.459-42.163-60.503-71.666-109.48-71.666c-66.015,0-119.517,53.515-119.517,119.511
		c0,66.014,53.502,119.528,119.517,119.528c32.576,0,62.075-13.079,83.635-34.215c-12.039-15.263-19.275-34.484-19.275-55.429
		C212.549,138.318,230.733,109.336,257.67,93.876z M142.115,115.933l46.673-7.416l2.264,32.564l-47.402,8.863l5.158,81.588
		c-2.171,0.305-5.819,0.705-10.944,1.22c-5.128,0.515-9.832,0.766-14.111,0.766c-6.752,0-11.761-0.658-15.014-1.985l-7.326-136.406
		l-12.667,2.261l2.264-42.964l109.627-16.369l2.264,39.34L140.668,87.71L142.115,115.933z"/>
</svg>
